<svg xmlns="http://www.w3.org/2000/svg" viewBox="0 0 160.8 125.2"><path d="M5.4 116.4V116.7s0 .1-.1.1H3.2V123.2l-.1.1h-.7s-.1 0-.1-.1V116.8h-2-.1l-.1-.1v-.1-.2-.2-.1s0-.1.1-.1H5.5l.1.1v.1c-.2 0-.2.1-.2.2zM8.6 118.3v.4h-.1-.1-.5c-.1 0-.2 0-.3.1-.1 0-.2.1-.3.2l-.3.3c-.1.1-.2.3-.4.5v3.4l-.1.1h-.6s-.1 0-.1-.1V118v-.1l.1-.1h.6s.1 0 .1.1V118.7c.1-.2.3-.4.4-.5l.3-.3c.1-.1.2-.1.3-.2h.7c.1 0 .1 0 .2.1.1 0 .1 0 .1.1v.4zM13.2 123.1l-.2.2h-.4c-.1 0-.1 0-.1-.1v-.6c-.2.2-.5.4-.7.5-.3.1-.6.2-.9.2-.3 0-.5 0-.7-.1-.2-.1-.4-.2-.5-.3-.2-.1-.3-.3-.4-.5-.1-.2-.1-.4-.1-.6 0-.3.1-.5.2-.7.1-.2.3-.4.5-.5.2-.1.5-.2.8-.3.3-.1.7-.1 1.1-.1h.7v-.4c0-.2 0-.4-.1-.5 0-.1-.1-.3-.2-.4-.1-.1-.2-.2-.4-.2-.1-.1-.3-.1-.5-.1s-.4 0-.6.1c-.2.1-.3.1-.5.2-.1.1-.2.1-.3.2-.3-.1-.3-.1-.4-.1h-.1l-.1-.1v-.1-.2-.2c0-.1 0-.1.1-.2.1 0 .1-.1.3-.2.1-.1.3-.1.4-.2.2-.1.3-.1.5-.1s.4-.1.6-.1c.4 0 .7 0 .9.1.3.1.5.2.6.4.2.2.3.4.3.6.1.2.1.5.1.8v3.6zm-.9-2.3h-.8c-.3 0-.5 0-.7.1-.2 0-.3.1-.5.2l-.3.3c-.1.1-.1.3-.1.4 0 .3.1.5.2.6.2.2.4.2.7.2.2 0 .5-.1.7-.2.2-.1.4-.3.7-.6v-1zM19.3 123.1c0 .1-.1.1-.1.1h-.6s-.1 0-.1-.1V120c0-.3 0-.5-.1-.7 0-.2-.1-.3-.2-.5l-.3-.3c-.1-.1-.3-.1-.5-.1s-.5.1-.7.2c-.2.2-.5.4-.7.7v3.6l-.1.1h-.6s-.1 0-.1-.1V118v-.1l.1-.1h.6s.1 0 .1.1V118.7c.3-.3.6-.6.8-.7.3-.1.6-.2.9-.2.3 0 .6.1.8.2.2.1.4.3.6.5.1.2.2.4.3.7.1.3.1.6.1.9v3zM24.1 121.7c0 .3 0 .5-.1.7-.1.2-.2.4-.4.5l-.6.3c-.2.1-.5.1-.8.1h-.5c-.2 0-.3-.1-.4-.1-.1 0-.2-.1-.3-.1-.1 0-.2-.1-.2-.1s-.1-.1-.1-.2v-.3-.2-.1-.1h.1s.1 0 .2.1c.1 0 .2.1.3.2.1.1.3.1.4.2.2 0 .3.1.6.1.2 0 .3 0 .4-.1.1 0 .2-.1.3-.1.1-.1.2-.1.2-.3.1-.1.1-.2.1-.4 0-.1 0-.3-.1-.4l-.3-.3c-.1-.1-.3-.1-.4-.2-.1-.1-.3-.1-.5-.2s-.3-.1-.5-.2-.3-.2-.4-.3c-.1-.1-.2-.3-.3-.4-.1-.2-.1-.4-.1-.6 0-.2 0-.4.1-.6.1-.2.2-.3.3-.5.2-.1.3-.2.6-.3.2-.1.5-.1.8-.1h.4c.1 0 .3.1.4.1.1 0 .2.1.3.1.1 0 .1.1.2.1l.1.1v.8h-.1s-.1 0-.1-.1c-.1 0-.1-.1-.2-.1s-.2-.1-.4-.1c-.1 0-.3-.1-.5-.1s-.3 0-.4.1c-.1 0-.2.1-.3.2l-.2.2c0 .1-.1.2-.1.3 0 .1 0 .3.1.4l.3.3c.1.1.3.1.4.2.2.1.3.1.5.2s.3.1.5.2.3.2.4.3c.1.1.2.2.3.4v.4zM30.1 120.5c0 .4 0 .8-.1 1.2-.1.4-.2.7-.4.9-.2.2-.4.4-.7.6-.3.1-.6.2-.9.2h-.4c-.1 0-.3-.1-.4-.1-.1-.1-.2-.1-.4-.2-.1-.1-.2-.2-.4-.3v2.6l-.1.1h-.6s-.1 0-.1-.1V118v-.1l.1-.1h.6s.1 0 .1.1V118.7l.4-.4c.1-.1.3-.2.4-.3.1-.1.3-.1.4-.2.2 0 .3-.1.5-.1.4 0 .7.1.9.2.3.1.5.3.6.6.2.2.3.5.4.9.1.3.1.7.1 1.1zm-.9.1c0-.3 0-.5-.1-.7 0-.2-.1-.5-.2-.6-.1-.2-.2-.3-.4-.4-.2-.1-.4-.2-.6-.2-.1 0-.2 0-.4.1-.1 0-.2.1-.4.2-.1.1-.2.2-.4.3-.1.1-.3.3-.4.5v2l.7.7c.2.2.5.2.7.2.2 0 .4-.1.6-.2.2-.1.3-.3.4-.4.1-.2.2-.4.2-.6.2-.5.3-.7.3-.9zM35.3 123.1l-.2.2h-.4c-.1 0-.1 0-.1-.1v-.6c-.2.2-.5.4-.7.5-.3.1-.6.2-.9.2-.3 0-.5 0-.7-.1l-.6-.3c-.2-.1-.3-.3-.4-.5-.1-.2-.1-.4-.1-.6 0-.3.1-.5.2-.7.1-.2.3-.4.5-.5.2-.1.5-.2.8-.3.3-.1.7-.1 1.1-.1h.7v-.4c0-.2 0-.4-.1-.5 0-.1-.1-.3-.2-.4-.1-.1-.2-.2-.4-.2-.1-.1-.3-.1-.5-.1s-.4 0-.6.1c-.2.1-.3.1-.5.2-.1.1-.3.1-.3.2-.1.1-.2.1-.2.1h-.1l-.1-.1v-.1-.2-.2c0-.1 0-.1.1-.2.1 0 .1-.1.3-.2.1-.1.3-.1.4-.2.2-.1.3-.1.5-.1s.4-.1.6-.1c.4 0 .7 0 .9.1.3.1.5.2.6.4.2.2.3.4.3.6.1.2.1.5.1.8v3.4zm-.9-2.3h-.8c-.3 0-.5 0-.7.1-.2 0-.3.1-.5.2l-.3.3c-.1.1-.1.3-.1.4 0 .3.1.5.2.6.2.2.4.2.7.2.2 0 .5-.1.7-.2.2-.1.4-.3.7-.6v-1zM40 118.3v.4h-.1-.1-.5c-.1 0-.2 0-.3.1-.1 0-.2.1-.3.2l-.3.3c-.1.1-.2.3-.4.5v3.4l-.1.1h-.6s-.1 0-.1-.1V118v-.1l.1-.1h.6s.1 0 .1.1V118.7c.1-.2.3-.4.4-.5l.3-.3c.1-.1.2-.1.3-.2h.7c.1 0 .1 0 .2.1.1 0 .1 0 .1.1v.4zM45.2 120.3c0 .1 0 .2-.1.3-.1.1-.2.1-.3.1h-3.3c0 .3 0 .5.1.8l.3.6c.1.2.3.3.5.4.2.1.5.1.8.1.2 0 .5 0 .6-.1.2 0 .3-.1.5-.1.1 0 .2-.1.3-.1.1 0 .2-.1.2-.1h.1V123s-.1.1-.2.1-.2.1-.4.1-.3.1-.6.1c-.2 0-.4.1-.7.1-.4 0-.8-.1-1.1-.2-.3-.1-.6-.3-.8-.5-.2-.2-.4-.5-.5-.9-.1-.3-.2-.7-.2-1.2 0-.4.1-.8.2-1.2.1-.3.3-.6.5-.9.2-.2.5-.4.8-.6.3-.1.6-.2 1-.2s.7.1 1 .2c.3.1.5.3.7.5.2.2.3.5.4.8.1.3.1.6.1.9v.2zm-1-.3c0-.5-.1-.9-.3-1.1-.2-.3-.6-.4-1-.4-.2 0-.4 0-.6.1-.2.1-.3.2-.4.3-.1.1-.2.3-.3.5-.1.2-.1.4-.1.6h2.7zM50.9 123.1c0 .1-.1.1-.1.1h-.6s-.1 0-.1-.1V120c0-.3 0-.5-.1-.7 0-.2-.1-.3-.2-.5l-.3-.3c-.1-.1-.3-.1-.5-.1s-.5.1-.7.2c-.2.2-.5.4-.7.7v3.6l-.1.1h-.6s-.1 0-.1-.1V118v-.1l.1-.1h.6s.1 0 .1.1V118.7c.3-.3.6-.6.9-.7.3-.1.6-.2.9-.2.3 0 .6.1.9.2.2.1.4.3.6.5.1.2.2.4.3.7.1.3.1.6.1.9v3zM55.8 122.8V123.1s0 .1-.1.1h-3.2c-.1 0-.1 0-.2-.1s-.1-.1-.1-.3v-.2-.1-.1s0-.1.1-.1c0 0 .1-.1.1-.2l2.2-3.5h-2.2c-.1 0-.1 0-.1-.1s-.1-.2-.1-.3v-.2-.1s0-.1.1-.1h3.1s.1 0 .1.1c0 0 0 .1.1.1v.6s0 .1-.1.1c0 0-.1.1-.1.2l-2.2 3.5h2.5l.1.1V122.8zM60.8 116.3c0 .2 0 .4-.1.4-.1.1-.2.1-.5.1-.2 0-.4 0-.4-.1-.1-.1-.1-.2-.1-.4s0-.4.1-.4c.1-.1.2-.1.5-.1.2 0 .4 0 .4.1.1 0 .1.2.1.4zm-.1 6.8c0 .1-.1.1-.1.1H60s-.1 0-.1-.1V118v-.1l.1-.1h.6s.1 0 .1.1V123.1zM69.9 123.1c0 .1-.1.1-.1.1h-.6s-.1 0-.1-.1V120c0-.2 0-.4-.1-.6 0-.2-.1-.3-.2-.5l-.3-.3c-.1-.1-.3-.1-.4-.1-.2 0-.4.1-.6.2-.2.2-.5.4-.7.7v3.6l-.1.1h-.6s-.1 0-.1-.1v-3c0-.2 0-.4-.1-.6 0-.2-.1-.3-.2-.5l-.3-.3c-.1-.1-.3-.1-.4-.1-.2 0-.4.1-.6.2-.2.2-.5.4-.7.7v3.6l-.1.1H63s-.1 0-.1-.1v-5-.1l.1-.1h.6s.1 0 .1.1V118.7c.3-.3.6-.6.8-.7.3-.1.5-.2.8-.2.2 0 .4 0 .6.1.2 0 .3.1.4.2l.3.3c.1.1.2.3.2.4l.5-.5c.2-.1.3-.2.4-.3.1-.1.3-.1.4-.2.1 0 .3-.1.4-.1.3 0 .6.1.8.2.2.1.4.3.5.5.1.2.2.4.3.7.1.3.1.5.1.8v3.2zM79.7 116.9V117.2s0 .1-.1.1h-.1s-.1 0-.2-.1-.2-.1-.4-.2-.4-.2-.6-.2c-.2-.1-.5-.1-.9-.1s-.8.1-1.1.2c-.3.1-.6.3-.8.6-.2.3-.4.6-.5.9-.1.4-.2.7-.2 1.2s.1.9.2 1.2c.1.4.3.7.5.9.2.2.5.4.8.6.3.1.7.2 1 .2.2 0 .5 0 .7-.1.2-.1.4-.1.6-.2V120h-1.7c-.1 0-.1 0-.1-.1v-.3-.2-.1s0-.1.1-.1h2.5s.1 0 .1.1l.1.1v3.3c0 .1-.1.1-.2.2s-.2.1-.4.2-.4.1-.5.2c-.2 0-.4.1-.6.1h-.6c-.6 0-1.1-.1-1.5-.3-.4-.2-.8-.4-1.1-.7-.3-.3-.5-.7-.7-1.2-.2-.4-.2-.9-.2-1.5s.1-1.1.3-1.6c.2-.5.4-.9.7-1.2.3-.3.7-.6 1.1-.8.4-.2.9-.3 1.5-.3.3 0 .5 0 .8.1.2 0 .5.1.6.2.2.1.3.1.5.2.1.1.2.1.3.2 0 0 .1.1.1.2v.2zM85.7 120.3c0 .1 0 .2-.1.3-.1.1-.2.1-.3.1H82c0 .3 0 .5.1.8.1.2.1.4.3.6.1.2.3.3.5.4.2.1.5.1.8.1.2 0 .5 0 .6-.1.2 0 .3-.1.5-.1.1 0 .2-.1.3-.1.1 0 .2-.1.2-.1h.1v.7l-.1.1s-.1.1-.2.1-.2.1-.4.1-.3.1-.6.1c-.2 0-.4.1-.7.1-.4 0-.8-.1-1.1-.2-.3-.1-.6-.3-.8-.5-.2-.2-.4-.5-.5-.9-.1-.3-.2-.7-.2-1.2 0-.4.1-.8.2-1.2.1-.3.3-.6.5-.9.2-.2.5-.4.8-.6.3-.1.6-.2 1-.2s.7.1 1 .2c.3.1.5.3.7.5.2.2.3.5.4.8.1.3.1.6.1.9v.2zm-.9-.3c0-.5-.1-.9-.3-1.1-.2-.3-.6-.4-1-.4-.2 0-.4 0-.6.1-.2.1-.3.2-.4.3-.1.1-.2.3-.3.5-.1.2-.1.4-.1.6h2.7zM90.3 121.7c0 .3 0 .5-.1.7-.1.2-.2.4-.4.5l-.6.3c-.2.1-.5.1-.8.1h-.5c-.2 0-.3-.1-.4-.1-.1 0-.2-.1-.3-.1-.1 0-.2-.1-.2-.1s-.1-.1-.1-.2v-.3-.2-.1-.1h.1s.1 0 .2.1c.1 0 .2.1.3.2.1.1.3.1.4.2.2 0 .3.1.6.1.2 0 .3 0 .4-.1.1 0 .2-.1.3-.1.1-.1.2-.1.2-.3.1-.1.1-.2.1-.4 0-.1 0-.3-.1-.4l-.3-.3c-.1-.1-.3-.1-.4-.2-.1-.1-.3-.1-.5-.2s-.3-.1-.5-.2-.3-.2-.4-.3c-.1-.1-.2-.3-.3-.4-.1-.2-.1-.4-.1-.6 0-.2 0-.4.1-.6.1-.2.2-.3.3-.5.2-.1.3-.2.6-.3.2-.1.5-.1.8-.1h.4c.1 0 .3.1.4.1.1 0 .2.1.3.1.1 0 .1.1.2.1l.1.1v.8H90s-.1 0-.1-.1c-.1 0-.1-.1-.2-.1s-.2-.1-.4-.1c-.1 0-.3-.1-.5-.1s-.3 0-.4.1c-.1 0-.2.1-.3.2l-.2.2c0 .1-.1.2-.1.3 0 .1 0 .3.1.4l.3.3c.1.1.3.1.4.2.2.1.3.1.5.2s.3.1.5.2.3.2.4.3c.1.1.2.2.3.4v.4zM96 123.1c0 .1-.1.1-.1.1h-.6s-.1 0-.1-.1V122.3c-.3.3-.6.6-.9.7-.3.1-.6.2-.9.2-.3 0-.6-.1-.8-.2-.2-.1-.4-.3-.6-.5-.1-.2-.2-.4-.3-.7-.1-.3-.1-.6-.1-.9V118v-.1l.1-.1h.6s.1 0 .1.1v3c0 .3 0 .5.1.7 0 .2.1.3.2.5l.3.3c.1.1.3.1.5.1s.5-.1.7-.2c.2-.2.5-.4.7-.7V118v-.1l.1-.1h.6s.1 0 .1.1V123.1zM102 123.1c0 .1-.1.1-.1.1h-.6s-.1 0-.1-.1V120c0-.3 0-.5-.1-.7 0-.2-.1-.3-.2-.5l-.3-.3c-.1-.1-.3-.1-.5-.1s-.5.1-.7.2c-.2.2-.5.4-.7.7v3.6l-.1.1H98s-.1 0-.1-.1V118v-.1l.1-.1h.6s.1 0 .1.1V118.7c.3-.3.6-.6.9-.7.3-.1.6-.2.9-.2.3 0 .6.1.9.2.2.1.4.3.6.5.1.2.2.4.3.7.1.3.1.6.1.9v3zM108 123.1c0 .1-.1.1-.1.1h-.6s-.1 0-.1-.1V122.3c-.3.3-.5.5-.8.7-.3.2-.6.2-.9.2-.4 0-.7-.1-.9-.2-.3-.1-.5-.3-.6-.6-.2-.2-.3-.5-.4-.9-.1-.3-.1-.7-.1-1 0-.4 0-.8.1-1.2.1-.4.2-.6.4-.9.2-.2.4-.4.7-.6.3-.1.6-.2.9-.2.3 0 .6.1.8.2.2.1.5.3.7.6v-2.9-.1l.1-.1h.6s.1 0 .1.1V123.1zm-.9-3.6l-.7-.7c-.2-.2-.5-.2-.7-.2-.2 0-.4.1-.6.2-.2.1-.3.3-.4.4-.1.2-.2.4-.2.6 0 .2-.1.5-.1.7 0 .3 0 .5.1.7 0 .2.1.5.2.6.1.2.2.3.4.5.2.1.4.2.6.2h.4c.1 0 .2-.1.4-.2.1-.1.2-.2.4-.3.1-.1.3-.3.4-.5v-2zM114.1 123.1c0 .1-.1.1-.1.1h-.6s-.1 0-.1-.1V120c0-.3 0-.5-.1-.7 0-.2-.1-.3-.2-.5l-.3-.3c-.1-.1-.3-.1-.5-.1s-.5.1-.7.2c-.2.2-.5.4-.7.7v3.6l-.1.1h-.6s-.1 0-.1-.1v-7.6-.1l.1-.1h.6s.1 0 .1.1v3.1c.3-.3.5-.5.8-.6.3-.1.5-.2.8-.2.3 0 .6.1.8.2.2.1.4.3.6.5.1.2.2.4.3.7.1.3.1.6.1.9v3.3zM120.1 120.3c0 .1 0 .2-.1.3-.1.1-.2.1-.2.1h-3.3c0 .3 0 .5.1.8l.3.6c.1.2.3.3.5.4.2.1.5.1.8.1.2 0 .5 0 .6-.1.2 0 .4-.1.5-.1.1 0 .2-.1.3-.1.1 0 .2-.1.2-.1h.1V123s-.1.1-.2.1-.2.1-.4.1-.3.1-.6.1c-.2 0-.4.1-.7.1-.4 0-.8-.1-1.1-.2-.3-.1-.6-.3-.8-.5-.2-.2-.4-.5-.5-.9-.1-.3-.2-.7-.2-1.2 0-.4.1-.8.2-1.2.1-.3.3-.6.5-.9.2-.2.5-.4.8-.6.3-.1.6-.2 1-.2s.7.1 1 .2c.3.1.5.3.7.5.2.2.3.5.4.8.1.3.1.6.1.9v.2zm-.9-.3c0-.5-.1-.9-.3-1.1-.2-.3-.6-.4-1-.4-.2 0-.4 0-.6.1-.2.1-.3.2-.4.3-.1.1-.2.3-.3.5-.1.2-.1.4-.1.6h2.7zM122.5 116.3c0 .2 0 .4-.1.4-.1.1-.2.1-.5.1-.2 0-.4 0-.4-.1-.1-.1-.1-.2-.1-.4s0-.4.1-.4c.1-.1.2-.1.5-.1.2 0 .4 0 .4.1.1 0 .1.2.1.4zm-.1 6.8c0 .1-.1.1-.1.1h-.6s-.1 0-.1-.1V118v-.1l.1-.1h.6s.1 0 .1.1V123.1zM126.8 122.7v.3c0 .1 0 .1-.1.1l-.1.1c-.1 0-.1 0-.2.1h-.5c-.3 0-.5 0-.7-.1-.2-.1-.3-.2-.5-.3-.1-.1-.2-.3-.3-.5-.1-.2-.1-.5-.1-.8v-3h-.7c-.1 0-.1 0-.1-.1v-.3-.2-.1s0-.1.1-.1H124.4v-1.2-.1l.1-.1h.6s.1 0 .1.1v1.3H126.6l.1.1V118.5c0 .1-.1.1-.1.1h-1.3v2.8c0 .3.1.6.2.8.1.2.3.3.6.3h.2c.1 0 .1 0 .2-.1.1 0 .1 0 .1-.1h.2v.4zM131.2 121.7c0 .3 0 .5-.1.7-.1.2-.2.4-.4.5l-.6.3c-.2.1-.5.1-.8.1h-.5c-.2 0-.3-.1-.4-.1-.1 0-.2-.1-.3-.1-.1 0-.2-.1-.2-.1s-.1-.1-.1-.2v-.3-.2-.1-.1h.1s.1 0 .2.1c.1 0 .2.1.3.2.1.1.3.1.4.2.2 0 .3.1.6.1.2 0 .3 0 .4-.1.1 0 .2-.1.3-.1.1-.1.2-.1.2-.3.1-.1.1-.2.1-.4 0-.1 0-.3-.1-.4l-.3-.3c-.1-.1-.3-.1-.4-.2-.1-.1-.3-.1-.5-.2s-.3-.1-.5-.2-.3-.2-.4-.3c-.1-.1-.2-.3-.3-.4-.1-.2-.1-.4-.1-.6 0-.2 0-.4.1-.6.1-.2.2-.3.3-.5.2-.1.3-.2.6-.3.2-.1.5-.1.8-.1h.4c.1 0 .3.1.4.1.1 0 .2.1.3.1.1 0 .1.1.2.1l.1.1v.8h-.1s-.1 0-.1-.1c-.1 0-.1-.1-.2-.1s-.2-.1-.4-.1c-.1 0-.3-.1-.5-.1s-.3 0-.4.1c-.1 0-.2.1-.3.2l-.2.2c0 .1-.1.2-.1.3 0 .1 0 .3.1.4l.3.3c.1.1.3.1.4.2.2.1.3.1.5.2s.3.1.5.2.3.2.4.3c.1.1.2.2.3.4-.1 0 0 .2 0 .4zM139.5 118s0 .1 0 0c0 .1 0 .2-.1.2L138 123s0 .1-.1.1c0 0-.1 0-.1.1h-1s-.1 0-.1-.1c0 0 0-.1-.1-.1l-1.1-3.7-1 3.7s0 .1-.1.1c0 0-.1 0-.1.1h-1s-.1 0-.1-.1v-.1l-1.5-4.8v-.1-.1-.1H132.5s.1 0 .1.1v.1l1.2 4.2 1.1-4.2v-.1l.1-.1h.6s.1 0 .1.1v.1l1.2 4.2 1.2-4.2v-.1l.1-.1h.6c.6 0 .7 0 .7.1 0-.1 0 0 0 0zM144.9 120.3c0 .1 0 .2-.1.3-.1.1-.2.1-.3.1h-3.3c0 .3 0 .5.1.8l.3.6c.1.2.3.3.5.4.2.1.5.1.8.1.2 0 .5 0 .6-.1.2 0 .3-.1.5-.1.1 0 .2-.1.3-.1.1 0 .2-.1.2-.1h.1v.7l-.1.1s-.1.1-.2.1-.2.1-.4.1-.3.1-.6.1c-.2 0-.4.1-.7.1-.4 0-.8-.1-1.1-.2-.3-.1-.6-.3-.8-.5-.2-.2-.4-.5-.5-.9-.1-.3-.2-.7-.2-1.2 0-.4.1-.8.2-1.2.1-.3.3-.6.5-.9.2-.2.5-.4.8-.6.3-.1.6-.2 1-.2s.7.1 1 .2c.3.1.5.3.7.5.2.2.3.5.4.8.1.3.1.6.1.9v.2zm-1-.3c0-.5-.1-.9-.3-1.1-.2-.3-.6-.4-1-.4-.2 0-.4 0-.6.1-.2.1-.3.2-.4.3-.1.1-.2.3-.3.5-.1.2-.1.4-.1.6h2.7zM149.4 121.7c0 .3 0 .5-.1.7-.1.2-.2.4-.4.5l-.6.3c-.2.1-.5.1-.8.1h-.5c-.2 0-.3-.1-.4-.1-.1 0-.2-.1-.3-.1-.1 0-.2-.1-.2-.1s-.1-.1-.1-.2v-.3-.2-.1-.1h.1s.1 0 .2.1c.1 0 .2.1.3.2.1.1.3.1.4.2.2 0 .3.1.6.1.2 0 .3 0 .4-.1.1 0 .2-.1.3-.1.1-.1.2-.1.2-.3 0-.1.1-.2.1-.4 0-.1 0-.3-.1-.4l-.3-.3c-.1-.1-.3-.1-.4-.2-.1-.1-.3-.1-.5-.2s-.3-.1-.5-.2-.3-.2-.4-.3c-.1-.1-.2-.3-.3-.4-.1-.2-.1-.4-.1-.6 0-.2 0-.4.1-.6.1-.2.2-.3.3-.5.2-.1.3-.2.6-.3.2-.1.5-.1.8-.1h.4c.1 0 .3.1.4.1.1 0 .2.1.3.1.1 0 .1.1.2.1l.1.1v.8h-.1s-.1 0-.1-.1c-.1 0-.1-.1-.2-.1s-.2-.1-.4-.1c-.1 0-.3-.1-.5-.1s-.3 0-.4.1c-.1 0-.2.1-.3.2l-.2.2c0 .1-.1.2-.1.3 0 .1 0 .3.1.4l.3.3c.1.1.3.1.4.2.2.1.3.1.5.2s.3.1.5.2.3.2.4.3c.1.1.2.2.3.4v.4zM155.1 120.3c0 .1 0 .2-.1.3-.1.1-.2.1-.2.1h-3.3c0 .3 0 .5.1.8l.3.6c.1.2.3.3.5.4.2.1.5.1.8.1.2 0 .5 0 .6-.1.2 0 .4-.1.5-.1.1 0 .3-.1.3-.1.1 0 .2-.1.2-.1h.1V123s-.1.1-.2.1-.2.1-.4.1-.3.1-.6.1c-.2 0-.4.1-.7.1-.4 0-.8-.1-1.1-.2-.3-.1-.6-.3-.8-.5-.2-.2-.4-.5-.5-.9-.1-.3-.2-.7-.2-1.2 0-.4.1-.8.2-1.2.1-.3.3-.6.5-.9.2-.2.5-.4.8-.6.3-.1.6-.2 1-.2s.7.1 1 .2c.3.1.5.3.7.5.2.2.3.5.4.8.1.3.1.6.1.9v.2zm-1-.3c0-.5-.1-.9-.3-1.1-.2-.3-.6-.4-1-.4-.2 0-.4 0-.6.1-.2.1-.3.2-.4.3-.1.1-.2.3-.3.5-.1.2-.1.4-.1.6h2.7zM160.8 123.1c0 .1-.1.1-.1.1h-.6s-.1 0-.1-.1V120c0-.3 0-.5-.1-.7 0-.2-.1-.3-.2-.5l-.3-.3c-.1-.1-.3-.1-.5-.1s-.5.1-.7.2c-.2.2-.5.4-.7.7v3.6l-.1.1h-.6s-.1 0-.1-.1V118v-.1l.1-.1h.6s.1 0 .1.1V118.7c.3-.3.6-.6.9-.7.3-.1.6-.2.9-.2.3 0 .6.1.8.2.2.1.4.3.6.5.1.2.2.4.3.7.1.3.1.6.1.9v3z"/><g><path d="M1.2 109.8s0 .1 0 0c0 .1-.1.1-.1.1H.4s-.1 0-.1-.1v-7.1-.1l.1-.1H1.1s.1 0 .1.1V109.8zM7.4 109.8s0 .1 0 0c0 .1-.1.1-.1.1h-.6s-.1 0-.1-.1v-3.1c0-.3 0-.5-.1-.7 0-.2-.1-.3-.2-.5l-.3-.3c-.1-.1-.3-.1-.5-.1s-.5.1-.7.2c-.2.2-.5.4-.7.7v3.6l-.1.1h-.6s-.1 0-.1-.1V104.4v-.1l.1-.1H4s.1 0 .1.1V105.1c.3-.3.6-.6.9-.7.3-.1.6-.2.9-.2.3 0 .6.1.8.2.2.1.4.3.6.5.1.2.2.4.3.7.1.3.1.6.1.9v3.3zM12.4 108.4c0 .3 0 .5-.1.7-.1.2-.2.4-.4.5l-.6.3c-.2.1-.5.1-.8.1H10c-.2 0-.3-.1-.4-.1-.1 0-.2-.1-.3-.1-.1 0-.2-.1-.2-.1s-.1-.1-.1-.2v-.3-.2-.1-.1h.1s.1 0 .2.1c.1 0 .2.1.3.2.1.1.3.1.4.2.2 0 .3.1.6.1h.4c.1 0 .2-.1.3-.1.1-.1.2-.1.2-.2.1-.1.1-.2.1-.4 0-.1 0-.3-.1-.4l-.3-.3c-.1-.1-.3-.1-.4-.2-.1-.1-.3-.1-.5-.2s-.3-.1-.5-.2-.3-.2-.4-.3c-.1-.1-.2-.3-.3-.4-.1-.2-.1-.4-.1-.6 0-.2 0-.4.1-.6.1-.2.2-.3.3-.5.2-.1.3-.2.6-.3.2-.1.5-.1.8-.1h.4c.1 0 .3 0 .4.1.1 0 .2.1.3.1.1 0 .1.1.2.1l.1.1v.8h-.1s-.1 0-.1-.1c-.1 0-.1-.1-.2-.1s-.2-.1-.4-.1c-.1 0-.3-.1-.5-.1s-.3 0-.4.1c-.1 0-.2.1-.3.2l-.2.2c0 .1-.1.2-.1.3 0 .1 0 .3.1.4l.3.3c.1.1.3.1.4.2.2.1.3.1.5.2s.3.1.5.2.3.2.4.3c.1.1.2.2.3.4-.1-.2 0 0 0 .2zM18 104.6c.1 0 .2 0 .2.1s.1.1.1.2v5l-.1.1h-.6s-.1 0-.1-.1v-4.5h-2.6v2.8c0 .3 0 .6.2.8.1.2.3.3.6.3h.2c.1 0 .1 0 .2-.1.1 0 .1 0 .1-.1h.2v.7c0 .1 0 .1-.1.1l-.1.1c-.1 0-.1 0-.2.1h-.5c-.3 0-.5 0-.7-.1-.2-.1-.3-.2-.5-.3-.1-.1-.2-.3-.3-.5-.1-.2-.1-.5-.1-.8v-3h-.7c-.1 0-.1 0-.1-.1s-.1-.2-.1-.3v-.2-.1s0-.1.1-.1H13.9v-1.2-.1l.1-.1h.6s.1 0 .1.1v1.3H18zm.4-1.5c0 .2 0 .4-.1.4-.1.1-.2.1-.5.1-.2 0-.4 0-.4-.1-.1-.1-.1-.2-.1-.4s0-.4.1-.4c.1-.1.2-.1.5-.1.2 0 .4 0 .4.1.1 0 .1.1.1.4zM22.7 109.4v.3c0 .1 0 .1-.1.1l-.1.1c-.1 0-.1 0-.2.1h-.5c-.3 0-.5 0-.7-.1-.2-.1-.3-.2-.5-.3-.1-.1-.2-.3-.3-.5-.1-.2-.1-.5-.1-.8v-3h-.7c-.1 0-.1 0-.1-.1s-.1-.2-.1-.3v-.2-.1s0-.1.1-.1H20.2v-1.2-.1l.1-.1h.6s.1 0 .1.1v1.3H22.4l.1.1V105.2c0 .1-.1.1-.1.1h-1.3v2.8c0 .3.1.6.2.8.1.2.3.3.6.3h.2c.1 0 .1 0 .2-.1.1 0 .1 0 .1-.1h.2v.2c.1.1.1.2.1.2zM28.3 109.8s0 .1 0 0c0 .1-.1.1-.1.1h-.6s-.1 0-.1-.1V109c-.3.3-.6.5-.9.7-.3.1-.6.2-.9.2-.3 0-.6-.1-.8-.2-.2-.1-.4-.3-.6-.5-.1-.2-.2-.4-.3-.7-.1-.3-.1-.6-.1-.9v-3.1-.1l.1-.1h.6s.1 0 .1.1v3c0 .3 0 .5.1.7 0 .2.1.3.2.5l.3.3c.1.1.3.1.5.1s.5-.1.7-.2c.2-.2.5-.4.7-.7v-3.5-.1l.1-.1h.6s.1 0 .1.1v5.3zM32.8 109.4v.3c0 .1 0 .1-.1.1l-.1.1c-.1 0-.1 0-.2.1h-.5c-.3 0-.5 0-.7-.1-.2-.1-.3-.2-.5-.3-.1-.1-.2-.3-.3-.5-.1-.2-.1-.5-.1-.8v-3h-.7c-.1 0-.1 0-.1-.1v-.3-.2-.1s0-.1.1-.1H30.4v-1.2-.1l.1-.1h.6s.1 0 .1.1v1.3H32.6l.1.1V104.9c0 .1 0 .2-.1.3 0 .1-.1.1-.1.1h-1.3v2.8c0 .3 0 .6.2.8.1.2.3.3.6.3h.2c.1 0 .1 0 .2-.1.1 0 .1 0 .1-.1h.2v.2c.1.1.1.2.1.2zM39.5 102.7v.4h-.1-.1s-.1 0-.1-.1c-.1 0-.1 0-.2-.1h-.3c-.1 0-.3 0-.4.1-.1 0-.2.1-.2.2-.1.1-.1.2-.1.4v1.1h1.1l.1.1V105.1c0 .1 0 .2-.1.3 0 .1-.1.1-.1.1h-1.1v4.5l-.1.1h-.6s-.1 0-.1-.1v-4.5h-.7c-.1 0-.1 0-.1-.1v-.3-.2-.1s0-.1.1-.1h.6v-.5c0-.4 0-.7.1-.9.1-.3.2-.5.3-.6.1-.2.3-.3.5-.4.2-.1.4-.1.7-.1h.4c.1 0 .2.1.3.1.1 0 .1.1.1.1l.1.1v.2zM44.6 109.8s0 .1 0 0c0 .1-.1.1-.1.1h-.6s-.1 0-.1-.1V109c-.3.3-.6.5-.9.7-.3.1-.6.2-.9.2-.3 0-.6-.1-.9-.2-.2-.1-.4-.3-.6-.5-.1-.2-.2-.4-.3-.7-.1-.3-.1-.6-.1-.9v-3.1-.1l.1-.1h.6s.1 0 .1.1v3c0 .3 0 .5.1.7 0 .2.1.3.2.5l.3.3c.1.1.3.1.5.1s.5-.1.7-.2c.2-.2.5-.4.7-.7v-3.5-.1l.1-.1h.6s.1 0 .1.1v5.3zm-2.6-6.7c0 .2 0 .3-.1.4-.1.1-.2.1-.4.1s-.3 0-.4-.1c-.1-.1-.1-.2-.1-.4s0-.4.1-.4c.1-.1.2-.1.4-.1s.3 0 .4.1c.1.1.1.2.1.4zm2 0c0 .2 0 .3-.1.4-.1.1-.2.1-.4.1s-.3 0-.4-.1c-.1-.1-.1-.2-.1-.4s0-.4.1-.4c.1-.1.2-.1.4-.1s.3 0 .4.1c0 .1.1.2.1.4zM49.3 105.1v.4h-.1-.1-.5c-.1 0-.2 0-.3.1-.1 0-.2.1-.3.2l-.3.3c-.1.1-.2.3-.4.5v3.4l-.1.1h-.6s-.1 0-.1-.1V104.8v-.1l.1-.1h.6s.1 0 .1.1V105.5c.1-.2.3-.4.4-.5l.3-.3c.1-.1.2-.1.3-.2H49.2c.1 0 .1 0 .1.1v.5zM60.2 110.6V110.9s0 .1-.1.1H60c-.1 0-.2 0-.4-.1l-.6-.3c-.2-.1-.4-.3-.7-.4-.2-.2-.5-.4-.7-.6-.2.1-.4.2-.7.3-.3.1-.6.1-1 .1-.5 0-1-.1-1.4-.2-.4-.2-.7-.4-1-.7-.3-.3-.5-.7-.6-1.2-.1-.5-.2-1-.2-1.6 0-.6.1-1.1.2-1.6s.3-.9.6-1.2c.3-.3.6-.6 1-.8.4-.2.9-.3 1.5-.3.5 0 1 .1 1.4.2.4.2.7.4 1 .7.3.3.5.7.6 1.1.1.5.2 1 .2 1.6 0 .3 0 .6-.1.9 0 .3-.1.5-.2.8-.1.2-.2.5-.3.7-.1.2-.3.4-.4.6.3.2.5.4.7.5.2.1.4.2.5.3.1.1.2.1.3.1.1 0 .1.1.2.1 0 0 .1.1.1.2.2.2.2.3.2.4zm-1.9-4.3c0-.4 0-.8-.1-1.1-.1-.4-.2-.7-.4-.9-.2-.3-.4-.5-.7-.6-.3-.1-.6-.2-1.1-.2-.4 0-.8.1-1.1.2-.3.2-.5.4-.7.6-.2.3-.3.6-.4.9-.1.3-.1.7-.1 1.1 0 .4 0 .8.1 1.2.1.4.2.7.4.9.2.3.4.5.7.6.3.1.6.2 1.1.2.4 0 .8-.1 1.1-.2.3-.2.5-.4.7-.6.2-.3.3-.6.4-.9.1-.4.1-.8.1-1.2zM65.3 109.8s0 .1 0 0c0 .1-.1.1-.1.1h-.6s-.1 0-.1-.1V109c-.3.3-.6.5-.9.7-.3.1-.6.2-.9.2-.3 0-.6-.1-.8-.2-.2-.1-.4-.3-.6-.5-.1-.2-.2-.4-.3-.7-.1-.3-.1-.6-.1-.9v-3.1-.1l.1-.1h.6s.1 0 .1.1v3c0 .3 0 .5.1.7 0 .2.1.3.2.5l.3.3c.1.1.3.1.5.1s.5-.1.7-.2c.2-.2.5-.4.7-.7v-3.5-.1l.1-.1h.6s.1 0 .1.1v5.3zM70.9 109.8v.1h-.6v-.6c-.2.2-.5.4-.7.5-.3.1-.6.2-.9.2-.3 0-.5 0-.7-.1-.2-.1-.4-.2-.5-.3-.2-.1-.3-.3-.4-.5-.1-.2-.1-.4-.1-.7 0-.3.1-.5.2-.7.1-.2.3-.4.5-.5.2-.1.5-.2.8-.3.3-.1.7-.1 1.1-.1h.7v-.4c0-.2 0-.4-.1-.5 0-.1-.1-.3-.2-.4-.1-.1-.2-.2-.4-.2-.1 0-.3-.1-.5-.1s-.4 0-.6.1c-.2.1-.3.1-.5.2-.1.1-.3.1-.3.2-.1.1-.2.1-.2.1h-.1l-.1-.1v-.1-.2-.2c0-.1 0-.1.1-.2 0 0 .1-.1.3-.2.1-.1.3-.1.4-.2.2-.1.3-.1.5-.1s.4-.1.6-.1c.4 0 .7 0 .9.1.3.1.5.2.6.4.2.2.3.4.3.6.1.2.1.5.1.8v3.5zm-1-2.3h-.8c-.3 0-.5 0-.7.1-.2 0-.3.1-.5.2l-.3.3c-.1.1-.1.3-.1.4 0 .3.1.5.2.6.2.2.4.2.7.2.2 0 .5-.1.7-.2.2-.1.4-.3.7-.6v-1zM73.5 109.8s0 .1 0 0c0 .1-.1.1-.1.1h-.6s-.1 0-.1-.1v-7.6-.1l.1-.1h.6s.1 0 .1.1V109.8zM76.4 103.1c0 .2 0 .4-.1.4-.1.1-.2.1-.5.1-.2 0-.4 0-.4-.1-.1-.1-.1-.2-.1-.4s0-.4.1-.4c.1-.1.2-.1.5-.1.2 0 .4 0 .4.1 0 0 .1.1.1.4zm-.1 6.7s-.1.1 0 0c0 .1-.1.1-.1.1h-.6s-.1 0-.1-.1V104.6v-.1l.1-.1h.6s.1 0 .1.1v5.3zM80.7 109.4v.3c0 .1 0 .1-.1.1l-.1.1c-.1 0-.1 0-.2.1h-.5c-.3 0-.5 0-.7-.1-.2-.1-.3-.2-.5-.3-.1-.1-.2-.3-.3-.5-.1-.2-.1-.5-.1-.8v-3h-.7c-.1 0-.1 0-.1-.1s-.1-.2-.1-.3v-.2-.1s0-.1.1-.1H78.2v-1.2-.1l.1-.1h.6s.1 0 .1.1v1.3H80.4l.1.1V105.2c0 .1-.1.1-.1.1h-1.3v2.8c0 .3 0 .6.2.8.1.2.3.3.6.3h.2c.1 0 .1 0 .2-.1.1 0 .1 0 .1-.1h.2v.2c.1.1.1.2.1.2zM85.6 109.8v.1H85v-.6c-.2.2-.5.4-.7.5-.3.1-.6.2-.9.2-.3 0-.5 0-.7-.1-.2-.1-.4-.2-.5-.3-.2-.1-.3-.3-.4-.5s-.1-.4-.1-.7c0-.3.1-.5.2-.7.1-.2.3-.4.5-.5.2-.1.5-.2.8-.3.3-.1.7-.1 1.1-.1h.7v-.4c0-.2 0-.4-.1-.5 0-.1-.1-.3-.2-.4-.1-.1-.2-.2-.4-.2-.1 0-.3-.1-.5-.1s-.4 0-.6.1c-.2.1-.3.1-.5.2-.1.1-.3.1-.3.2-.1.1-.2.1-.2.1h-.1l-.1-.1v-.1-.2-.2c0-.1 0-.1.1-.2 0 0 .1-.1.3-.2.1-.1.3-.1.4-.2.2-.1.3-.1.5-.1s.4-.1.6-.1c.4 0 .7 0 .9.1.3.1.5.2.6.4.2.2.3.4.3.6.1.2.1.5.1.8v3.5zm-2.3-6.7c0 .2 0 .3-.1.4-.1.1-.2.1-.4.1s-.3 0-.4-.1c-.1-.1-.1-.2-.1-.4s0-.4.1-.4c.1-.1.2-.1.4-.1s.3 0 .4.1c0 .1.1.2.1.4zm1.4 4.4h-.8c-.3 0-.5 0-.7.1-.2 0-.3.1-.5.2l-.3.3c-.1.1-.1.3-.1.4 0 .3.1.5.3.6.2.2.4.2.7.2.2 0 .5-.1.7-.2.2-.1.4-.3.7-.6v-1zm.5-4.4c0 .2 0 .3-.1.4-.1.1-.2.1-.4.1s-.3 0-.4-.1c-.1-.1-.1-.2-.1-.4s0-.4.1-.4c.1-.1.2-.1.4-.1s.3 0 .4.1c.1.1.1.2.1.4zM89.9 109.4v.3c0 .1 0 .1-.1.1l-.1.1c-.1 0-.1 0-.2.1H89c-.3 0-.5 0-.7-.1-.2-.1-.3-.2-.5-.3-.1-.1-.2-.3-.3-.5-.1-.2-.1-.5-.1-.8v-3h-.7c-.1 0-.1 0-.1-.1v-.3-.2-.1s0-.1.1-.1H87.5v-1.2-.1l.1-.1h.6s.1 0 .1.1v1.3H89.7l.1.1V105.2c0 .1-.1.1-.1.1h-1.3v2.8c0 .3.1.6.2.8.1.2.3.3.6.3h.2c.1 0 .1 0 .2-.1.1 0 .1 0 .1-.1h.2v.4zM94.4 108.4c0 .3 0 .5-.1.7-.1.2-.2.4-.4.5l-.6.3c-.2.1-.5.1-.8.1H92c-.2 0-.3-.1-.4-.1-.1 0-.2-.1-.3-.1-.1 0-.2-.1-.2-.1s-.1-.1-.1-.2v-.3-.2-.1-.1h.1s.1 0 .2.1c.1 0 .2.1.3.2.1.1.3.1.4.2.2 0 .3.1.6.1h.4c.1 0 .2-.1.3-.1.1-.1.2-.1.2-.2s.1-.2.1-.4c0-.1 0-.3-.1-.4l-.3-.3c-.1-.1-.3-.1-.4-.2-.1-.1-.3-.1-.5-.2s-.3-.1-.5-.2-.3-.2-.4-.3c-.1-.1-.2-.3-.3-.4-.1-.2-.1-.4-.1-.6 0-.2 0-.4.1-.6.1-.2.2-.3.3-.5.2-.1.3-.2.6-.3.2-.1.5-.1.8-.1h.4c.1 0 .3 0 .4.1.1 0 .2.1.3.1.1 0 .1.1.2.1l.1.1v.8h-.1s-.1 0-.1-.1c-.1 0-.1-.1-.2-.1s-.2-.1-.4-.1c-.1 0-.3-.1-.5-.1s-.3 0-.4.1c-.1 0-.2.1-.3.2l-.2.2c0 .1-.1.2-.1.3 0 .1 0 .3.1.4l.3.3c.1.1.3.1.4.2.2.1.3.1.5.2s.3.1.5.2.3.2.4.3c.1.1.2.2.3.4-.1-.2 0 0 0 .2zM98.9 108.4c0 .3 0 .5-.1.7-.1.2-.2.4-.4.5l-.6.3c-.2.1-.5.1-.8.1h-.5c-.2 0-.3-.1-.4-.1-.1 0-.2-.1-.3-.1-.1 0-.2-.1-.2-.1s-.1-.1-.1-.2v-.3-.2-.1-.1h.1s.1 0 .2.1c.1 0 .2.1.3.2.1.1.3.1.4.2.2 0 .3.1.6.1h.4c.1 0 .2-.1.3-.1.1-.1.2-.1.2-.2.1-.1.1-.2.1-.4 0-.1 0-.3-.1-.4l-.3-.3c-.1-.1-.3-.1-.4-.2-.2-.1-.3-.1-.5-.2s-.3-.1-.5-.2-.3-.2-.4-.3c-.1-.1-.2-.3-.3-.4-.1-.2-.1-.4-.1-.6 0-.2 0-.4.1-.6.1-.2.2-.3.3-.5.2-.1.3-.2.6-.3.2-.1.5-.1.8-.1h.4c.1 0 .3 0 .4.1.1 0 .2.1.3.1.1 0 .1.1.2.1l.1.1v.8h-.1s-.1 0-.1-.1c-.1 0-.1-.1-.2-.1s-.2-.1-.4-.1c-.1 0-.3-.1-.5-.1s-.3 0-.4.1c-.1 0-.2.1-.3.2l-.2.2c0 .1-.1.2-.1.3 0 .1 0 .3.1.4l.3.3c.1.1.3.1.4.2.2.1.3.1.5.2s.3.1.5.2.3.2.4.3c.1.1.2.2.3.4v.2zM101.4 103.1c0 .2 0 .4-.1.4-.1.1-.2.1-.5.1-.2 0-.4 0-.4-.1-.1-.1-.1-.2-.1-.4s0-.4.1-.4c.1-.1.2-.1.5-.1.2 0 .4 0 .4.1 0 0 .1.1.1.4zm-.1 6.7s-.1.1 0 0c0 .1-.1.1-.1.1h-.6s-.1 0-.1-.1V104.6v-.1l.1-.1h.6s.1 0 .1.1v5.3zM106.7 109v.4s0 .1-.1.1l-.2.2c-.1.1-.2.1-.4.2-.1.1-.3.1-.5.1s-.3.1-.5.1c-.4 0-.7-.1-1-.2-.3-.1-.5-.3-.7-.5-.2-.2-.3-.5-.4-.8-.1-.3-.1-.7-.1-1.2s.1-.9.2-1.3.3-.6.5-.9c.2-.2.5-.4.7-.5.3-.1.6-.2.9-.2h.5c.2 0 .3.1.4.1.1 0 .2.1.3.2.1.1.2.1.2.2l.1.1v.7c0 .1-.1.1-.1.1-.1 0-.1 0-.2-.1s-.2-.1-.3-.2c-.1-.1-.2-.1-.4-.2s-.3-.1-.6-.1c-.4 0-.8.2-1 .5-.2.3-.4.8-.4 1.5 0 .3 0 .6.1.9.1.2.2.5.3.6.1.2.3.3.4.4.2.1.4.1.6.1.2 0 .4 0 .6-.1.2-.1.3-.1.4-.2.1-.1.2-.2.3-.2.1-.1.1-.1.2-.1h.1v.2c.1 0 .1.1.1.1zM112.3 109.8s0 .1 0 0c0 .1-.1.1-.1.1h-.6s-.1 0-.1-.1v-3.1c0-.3 0-.5-.1-.7 0-.2-.1-.3-.2-.5l-.3-.3c-.1-.1-.3-.1-.5-.1s-.5.1-.7.2c-.2.2-.5.4-.7.7v3.6l-.1.1h-.6s-.1 0-.1-.1V102v-.1l.1-.1h.6s.1 0 .1.1v3.1c.3-.3.5-.5.8-.6.3-.1.5-.2.8-.2.3 0 .6.1.8.2.2.1.4.3.6.5.1.2.2.4.3.7.1.3.1.6.1.9v3.3zM118.4 107.1c0 .1 0 .3-.1.3-.1.1-.2.1-.3.1h-3.3c0 .3 0 .5.1.8l.3.6c.1.2.3.3.5.4.2.1.5.1.8.1.2 0 .5 0 .6-.1.2 0 .4-.1.5-.1.1 0 .2-.1.3-.1.1 0 .2-.1.2-.1h.1V109.8s-.1.1-.2.1-.2.1-.4.1-.3.1-.6.1c-.2 0-.4.1-.7.1-.4 0-.8-.1-1.1-.2-.3-.1-.6-.3-.8-.5-.2-.2-.4-.5-.5-.9-.1-.3-.2-.7-.2-1.2 0-.4.1-.8.2-1.2.1-.3.3-.6.5-.9.2-.2.5-.4.8-.6.3-.1.6-.2 1-.2s.7.1 1 .2c.3.1.5.3.7.5.2.2.3.5.4.8.1.3.1.6.1.9v.2zm-1-.3c0-.5-.1-.9-.3-1.1-.2-.3-.6-.4-1-.4-.2 0-.4 0-.6.1-.2.1-.3.2-.4.3-.1.1-.2.3-.3.5-.1.2-.1.4-.1.6h2.7zM122.8 105.1v.4h-.1-.1-.5c-.1 0-.2 0-.3.1s-.2.1-.3.2l-.3.3c-.1.1-.2.3-.4.5v3.4l-.1.1h-.6s-.1 0-.1-.1V104.8v-.1l.1-.1h.6s.1 0 .1.1V105.5c.1-.2.3-.4.4-.5l.3-.3c.1-.1.2-.1.3-.2H122.7c.1 0 .1 0 .1.1v.5zM128.3 109.8s0 .1 0 0c0 .1-.1.1-.1.1h-.6s-.1 0-.1-.1V109c-.3.3-.6.5-.9.7-.3.1-.6.2-.9.2-.3 0-.6-.1-.9-.2-.2-.1-.4-.3-.6-.5-.1-.2-.2-.4-.3-.7-.1-.3-.1-.6-.1-.9v-3.1-.1l.1-.1h.6s.1 0 .1.1v3c0 .3 0 .5.1.7 0 .2.1.3.2.5l.3.3c.1.1.3.1.5.1s.5-.1.7-.2c.2-.2.5-.4.7-.7v-3.5-.1l.1-.1h.6s.1 0 .1.1v5.3zM134.4 109.8s0 .1 0 0c0 .1-.1.1-.1.1h-.6s-.1 0-.1-.1v-3.1c0-.3 0-.5-.1-.7 0-.2-.1-.3-.2-.5l-.3-.3c-.1-.1-.3-.1-.5-.1s-.5.1-.7.2c-.2.2-.5.4-.7.7v3.6l-.1.1h-.6s-.1 0-.1-.1V104.4v-.1l.1-.1h.6s.1 0 .1.1V105.1c.3-.3.6-.6.9-.7.3-.1.6-.2.9-.2.3 0 .6.1.8.2.2.1.4.3.6.5.1.2.2.4.3.7.1.3.1.6.1.9v3.3zM140.4 105c0 .1 0 .2-.1.3 0 .1-.1.1-.1.1h-.7c.1.1.2.3.3.4.1.2.1.3.1.5 0 .3 0 .5-.1.8-.1.2-.2.4-.4.6-.2.2-.4.3-.6.4-.2.1-.5.1-.8.1-.2 0-.4 0-.6-.1-.2-.1-.3-.1-.4-.2l-.2.2c0 .1-.1.2-.1.3 0 .1.1.2.2.3.1.1.3.1.5.1l1.3.1c.3 0 .5 0 .7.1.2.1.4.1.5.3.2.1.3.3.4.4.1.2.1.4.1.6 0 .2 0 .5-.1.7-.1.2-.2.4-.4.6-.2.2-.5.3-.8.4-.3.1-.7.1-1.1.1-.4 0-.8 0-1-.1-.3-.1-.5-.2-.7-.3-.2-.1-.3-.3-.4-.4-.1-.2-.1-.3-.1-.5v-.4c0-.1.1-.2.1-.3.1-.1.1-.2.2-.3l.3-.3c-.2-.1-.3-.2-.4-.4-.1-.1-.1-.3-.1-.5s0-.4.1-.6c.1-.2.2-.3.3-.5-.1-.1-.2-.3-.3-.5-.1-.2-.1-.4-.1-.6 0-.3 0-.5.1-.8.1-.2.2-.4.4-.6.2-.2.4-.3.6-.4.2-.1.5-.1.8-.1h.4c.1 0 .3 0 .4.1h1.5c.1 0 .1 0 .1.1.1.1.2.2.2.3zm-1 5.3c0-.2-.1-.4-.3-.5-.2-.1-.4-.2-.7-.2h-1.3l-.3.3c-.1.1-.1.2-.2.2 0 .1-.1.2-.1.2v.2c0 .2.1.4.4.6.2.1.6.2 1 .2.3 0 .5 0 .7-.1.2-.1.3-.1.5-.2.1-.1.2-.2.2-.3.1-.1.1-.2.1-.4zm-.5-4c0-.3-.1-.6-.3-.8-.2-.2-.5-.3-.8-.3-.2 0-.3 0-.5.1-.1.1-.2.1-.3.2-.1.1-.2.2-.2.4 0 .1-.1.3-.1.4 0 .3.1.6.3.8.2.2.5.3.8.3.2 0 .3 0 .5-.1.1-.1.2-.1.3-.2.1-.1.2-.2.2-.4.1-.1.1-.2.1-.4zM148.6 109.8s0 .1 0 0c0 .1-.1.1-.1.1h-.6s-.1 0-.1-.1V109c-.3.3-.6.5-.9.7-.3.1-.6.2-.9.2-.3 0-.6-.1-.9-.2-.2-.1-.4-.3-.6-.5-.1-.2-.2-.4-.3-.7-.1-.3-.1-.6-.1-.9v-3.1-.1l.1-.1h.6s.1 0 .1.1v3c0 .3 0 .5.1.7 0 .2.1.3.2.5l.3.3c.1.1.3.1.5.1s.5-.1.7-.2c.2-.2.5-.4.7-.7v-3.5-.1l.1-.1h.6s.1 0 .1.1v5.3zM154.7 109.8s0 .1 0 0c0 .1-.1.1-.1.1h-.6s-.1 0-.1-.1v-3.1c0-.3 0-.5-.1-.7 0-.2-.1-.3-.2-.5l-.3-.3c-.1-.1-.3-.1-.5-.1s-.5.1-.7.2c-.2.2-.5.4-.7.7v3.6l-.1.1h-.6s-.1 0-.1-.1V104.4v-.1l.1-.1h.6s.1 0 .1.1V105.1c.3-.3.6-.6.8-.7.3-.1.6-.2.9-.2.3 0 .6.1.8.2.2.1.4.3.6.5.1.2.2.4.3.7.1.3.1.6.1.9v3.3zM160.8 109.8s0 .1 0 0c0 .1-.1.1-.1.1h-.6s-.1 0-.1-.1V109c-.3.3-.5.5-.8.7-.3.2-.6.2-.9.2-.4 0-.7-.1-.9-.2-.3-.1-.5-.3-.6-.6-.2-.2-.3-.5-.4-.9-.1-.3-.1-.7-.1-1 0-.4 0-.8.1-1.2.1-.4.2-.7.4-.9.2-.2.4-.4.7-.6.3-.1.6-.2.9-.2.3 0 .6.1.8.2.2.1.5.3.7.6v-2.9-.1l.1-.1h.6s.1 0 .1.1V109.8zm-.9-3.5l-.7-.7c-.2-.2-.5-.2-.7-.2-.2 0-.4.1-.6.2-.2.1-.3.3-.4.4-.1.2-.2.4-.2.6 0 .2-.1.5-.1.7 0 .3 0 .5.1.7 0 .2.1.5.2.6.1.2.2.3.4.5.2.1.4.2.6.2h.4c.1 0 .2-.1.4-.2.1-.1.2-.2.4-.3.1-.1.3-.3.4-.5v-2z"/></g><path fill-rule="evenodd" clip-rule="evenodd" fill="#024D4B" d="M12.6 0h90v90h-90z"/><g fill="#FFF"><path d="M53.9 77.4c2.6 1.8 5 3 7.2 3.9l-1.6 3.9c-3-1.1-6-2.8-9-5.1-3.1 1.7-6.6 2.6-10.4 2.6-3.8 0-7.3-.9-10.4-2.8-3.1-1.8-5.5-4.4-7.2-7.7-1.7-3.3-2.5-7-2.5-11.2 0-4.1.8-7.9 2.5-11.2 1.7-3.4 4.1-6 7.2-7.7 3.1-1.8 6.6-2.6 10.5-2.6 3.9 0 7.4.9 10.5 2.7 3.1 1.8 5.5 4.4 7.2 7.7 1.6 3.3 2.5 7 2.5 11.2 0 3.4-.5 6.6-1.6 9.3-1.2 2.6-2.8 4.9-4.9 7zm-12.3-7.1c3.2.9 5.9 2.2 8 4 3.3-2.9 4.9-7.4 4.9-13.4 0-3.4-.6-6.3-1.8-8.8-1.2-2.5-2.9-4.5-5.1-5.9-2.2-1.4-4.8-2.1-7.5-2.1-4.2 0-7.6 1.4-10.4 4.2-2.7 2.8-4.1 7-4.1 12.6 0 5.4 1.4 9.6 4.1 12.5 2.7 2.9 6.2 4.4 10.4 4.4 2 0 3.9-.4 5.7-1.1-1.7-1.1-3.6-1.9-5.5-2.4l1.3-4zM75.8 81.9V45H61.9v-5h33.4v5H81.4v36.9"/></g><path fill="#942B3E" d="M0 40h6.6v41.8H0zM108.6 40h6.6v41.8h-6.6zM143.1 82.8c-4.2 0-8-.9-11.4-2.7-3.4-1.8-6.1-4.4-7.8-7.7-1.7-3.3-2.6-7.1-2.6-11.3 0-4.1.9-8 2.6-11.5 1.7-3.6 4.3-6.3 7.5-8 3.3-1.7 7.1-2.6 11.3-2.6 3.1 0 5.9.5 8.3 1.5 2.5 1 4.5 2.4 5.9 4.2 1.4 1.8 2.5 4.1 3.2 7l.1.3-5.6 1.5-.1-.3c-.6-2.1-1.4-3.7-2.3-4.9-.9-1.2-2.2-2.1-3.9-2.8-1.7-.7-3.6-1.1-5.7-1.1-2.5 0-4.7.4-6.5 1.1-1.8.7-3.3 1.7-4.4 3-1.1 1.2-2 2.6-2.6 4-1.1 2.5-1.6 5.4-1.6 8.3 0 3.7.6 6.8 1.9 9.2 1.3 2.4 3.1 4.3 5.5 5.5 2.4 1.2 5 1.8 7.7 1.8 2.4 0 4.8-.5 7-1.4 2.2-.9 3.9-1.8 5-2.8v-7.4h-12.4v-5.5h18.5v16l-.1.1c-2.7 2.2-5.6 3.8-8.6 4.9-2.8 1.1-5.8 1.6-8.9 1.6z"/></svg>
